# xmcd CD database file
# Copyright (C) 1995-1998 Ti Kan
#
# Track frame offsets:
#	150
#	18276
#	38065
#	65310
#	84099
#	110260
#	127675
#	146027
#	164554
#	187612
#	202394
#	221989
#
# Disc length: 3297 seconds
#
# Revision: 1
# Processed by: cddbd v1.4PL0 Copyright (c) Steve Scherf et al.
# Submitted via: CDex 1.30Release
#
DISCID=a00cdf0c
DTITLE=Django Walker - Down the Road
DYEAR=2002
DGENRE=Country
TTITLE0=Down the Road
TTITLE1=Texas Blacktop Highway
TTITLE2=The Road You Choose
TTITLE3=Another Day
TTITLE4=All the Miles
TTITLE5=College Life
TTITLE6=Modern Day Bojangles
TTITLE7=Wild Cowboys
TTITLE8=Love is a Crazy Thing
TTITLE9=Jose and Jack
TTITLE10=Lost Songwriter
TTITLE11=Texas on my Mind
EXTD=This is Djengo Walker's first album.  He is the sone of Jerry Jeff Walk
EXTD=er. YEAR: 2002 ID3G:   2
EXTT0=
EXTT1=
EXTT2=
EXTT3=
EXTT4=
EXTT5=
EXTT6=
EXTT7=
EXTT8=
EXTT9=
EXTT10=
EXTT11=
PLAYORDER=
